# xmcd
#
# Track frame offsets:
#	150
#	14416
#	27681
#	41178
#	54644
#	67685
#	78748
#	91748
#	106350
#	121332
#	133234
#	148846
#	162573
#	178610
#	191004
#	208501
#
# Disc length: 2941 seconds
#
# Revision: 0
# Processed by: cddbd v1.5.1PL0 Copyright (c) Steve Scherf et al.
# Submitted via: audiograbber 1.82.02
#
DISCID=ec0b7b10
DTITLE=Various Artist - Line Dancing
DYEAR=2004
DGENRE=Country
TTITLE0=The Nashville Riders - Cooton Eye Joe
TTITLE1=The Nashville Riders - Little Miss Honky Tonk
TTITLE2=Delta Line Dance Band - Boot Scootin Boogie
TTITLE3=Delta Line Dance Band - Passsieonate Kissed
TTITLE4=The Nashville Riders - Mi Vida Loca (My Crazy Life)
TTITLE5=Delta Line Dance Band - My Baby Loves Me
TTITLE6=The Nashville Riders - Xxx's and Ooo's (American Girl)
TTITLE7=Delta Line Dance Band - Achy Breaky Heart
TTITLE8=The Nashville Riders - Third Rate Romance
TTITLE9=Delta Line Dance Band - Wild One
TTITLE10=Delta Line Dance Band - The Bug
TTITLE11=Delta Line Dance Band - One More Last Chance
TTITLE12=The Nashville Riders - Pld Pop In An Oak
TTITLE13=The Nashville Riders - Gonna Get A Life
TTITLE14=Delta Line Dance Band - He Thinks He'll Keep Her
TTITLE15=Delta Line Dance Band - Dream Babt
EXTD=
EXTT0=
EXTT1=
EXTT2=
EXTT3=
EXTT4=
EXTT5=
EXTT6=
EXTT7=
EXTT8=
EXTT9=
EXTT10=
EXTT11=
EXTT12=
EXTT13=
EXTT14=
EXTT15=
PLAYORDER=
